<?xml version="1.0" standalone="no"?>
<!DOCTYPE svg PUBLIC "-//W3C//DTD SVG 20010904//EN"
 "http://www.w3.org/TR/2001/REC-SVG-20010904/DTD/svg10.dtd">
<svg version="1.0" xmlns="http://www.w3.org/2000/svg"
 width="700.000000pt" height="700.000000pt" viewBox="0 0 700.000000 700.000000"
 preserveAspectRatio="xMidYMid meet">
<g transform="translate(0.000000,700.000000) scale(0.100000,-0.100000)"
fill="#000000" stroke="none">
<path d="M3278 5615 c-1 -1 -39 -6 -83 -9 -139 -12 -164 -15 -280 -36 -60 -11
-121 -22 -135 -24 -76 -14 -320 -93 -395 -128 -16 -8 -68 -31 -115 -52 -242
-109 -468 -261 -665 -446 -74 -70 -235 -238 -235 -245 0 -2 -15 -21 -33 -42
-47 -54 -167 -233 -218 -325 -113 -203 -210 -480 -244 -693 -9 -58 -18 -116
-20 -130 -17 -100 -23 -398 -11 -520 30 -298 103 -570 213 -800 15 -33 32 -67
36 -75 33 -69 50 -99 108 -193 37 -60 69 -110 69 -112 0 -2 32 -44 71 -93 132
-167 363 -376 522 -471 22 -14 49 -30 60 -38 32 -21 173 -93 227 -116 384
-164 775 -227 1170 -188 234 23 353 46 530 103 94 31 290 110 343 139 10 5 59
31 107 56 249 130 528 368 717 612 291 375 467 826 511 1311 13 135 6 456 -11
547 -2 10 -7 41 -10 68 -11 85 -56 271 -89 370 -201 598 -636 1089 -1198 1354
-130 61 -345 136 -435 152 -8 1 -35 7 -60 14 -25 6 -56 13 -69 16 -13 2 -69
11 -125 20 -105 17 -156 21 -318 24 -58 1 -107 1 -108 0z"/>
</g>
</svg>
